<?xml version="1.0" encoding="UTF-8"?>
<svg version="1.1" xmlns="http://www.w3.org/2000/svg" width="1632" height="385">
<path d="M0 0 C1.47926917 -0.00445668 1.47926917 -0.00445668 2.98842257 -0.0090034 C6.26106397 -0.01760768 9.53366842 -0.01919159 12.80632019 -0.02069092 C15.16630632 -0.02532507 17.52629171 -0.03035052 19.88627625 -0.03573608 C26.27739379 -0.04880712 32.66850086 -0.05529501 39.05962968 -0.05974674 C43.0621714 -0.06268687 47.06471101 -0.0667622 51.06725121 -0.07125092 C62.18263121 -0.08343533 73.29800934 -0.09373536 84.41339588 -0.09712601 C85.12310472 -0.09734557 85.83281356 -0.09756514 86.56402872 -0.09779136 C87.27529188 -0.09800964 87.98655503 -0.09822791 88.71937162 -0.09845281 C90.16030109 -0.09889625 91.60123056 -0.09934281 93.04216003 -0.09979248 C93.75688808 -0.10001391 94.47161612 -0.10023534 95.20800259 -0.10046348 C106.76431918 -0.10440346 118.32057242 -0.1218367 129.87686459 -0.145152 C141.78539223 -0.16898086 153.69388823 -0.18133311 165.60244006 -0.18249393 C172.27084591 -0.18340439 178.93918032 -0.18932366 185.60756874 -0.20731354 C191.8908691 -0.22393558 198.17401412 -0.22588194 204.4573288 -0.21717453 C206.74599566 -0.21641158 209.03467137 -0.22064707 211.32331657 -0.23063278 C237.78184363 -0.33917755 263.95527623 0.64614034 284.21330261 19.66387939 C300.87834434 36.95624675 303.77390552 59.3792251 303.73373413 82.45344543 C303.73599969 83.43019649 303.73826524 84.40694754 303.74059945 85.41329712 C303.74687923 88.65381933 303.74611399 91.89429907 303.74528503 95.13482666 C303.74828034 97.47174635 303.75168372 99.80866555 303.75546265 102.14558411 C303.76427025 108.47238847 303.76663943 114.7991793 303.76727843 121.1259892 C303.76811074 125.75234731 303.77101414 130.37870244 303.77411491 135.00505949 C303.78240928 147.46383634 303.78615855 159.92260606 303.78544518 172.38138557 C303.78538524 173.44028129 303.78538524 173.44028129 303.7853241 174.52056885 C303.78528322 175.22737429 303.78524234 175.93417973 303.78520022 176.66240352 C303.78479428 188.10177655 303.79435313 199.54111658 303.80846246 210.98048008 C303.82287814 222.76242687 303.82972977 234.54435762 303.82886869 246.32631344 C303.82853845 252.92638721 303.83140746 259.52643061 303.84204674 266.12649727 C303.85179118 272.34081627 303.85176374 278.55506269 303.84453011 284.76938438 C303.84349203 287.03715243 303.84580039 289.30492514 303.85189056 291.57268524 C303.91779106 317.83387571 303.45327641 345.45847264 284.33195496 365.6194458 C266.34554807 383.69394038 241.35463879 385.21026527 217.2442714 385.28312075 C214.02943385 385.28723413 210.81461701 385.2865335 207.59977722 385.28570557 C205.27418464 385.28870147 202.94859255 385.29210499 200.6230011 385.29588318 C194.33131164 385.30468453 188.0396358 385.30705969 181.74794078 385.30769897 C177.80856801 385.30841178 173.86919865 385.31055051 169.92982674 385.31319618 C156.87130097 385.32196153 143.81278371 385.32661748 130.75425499 385.32586571 C130.05213963 385.32582575 129.35002427 385.3257858 128.62663269 385.32574463 C127.92364568 385.32570375 127.22065866 385.32566287 126.49636901 385.32562075 C115.11916704 385.32521482 103.74199825 385.33477386 92.36480587 385.348883 C80.64271324 385.36330344 68.92063673 385.37015005 57.19853503 385.36928922 C50.63365317 385.36903542 44.06880888 385.37182094 37.50393486 385.38246727 C31.32243041 385.39221885 25.1409989 385.39217949 18.95949173 385.38495064 C16.70504333 385.38391344 14.45059022 385.38621552 12.19614983 385.3923111 C-14.65719801 385.46015012 -42.41691732 385.07109865 -62.70466614 364.99591064 C-78.60376974 348.1520777 -81.57204648 326.04375472 -81.53369141 303.70681763 C-81.53595696 302.71711035 -81.53822252 301.72740307 -81.54055673 300.70770466 C-81.54683778 297.42339003 -81.54607118 294.1391173 -81.54524231 290.85479736 C-81.54823751 288.48669889 -81.55164087 286.1186009 -81.55541992 283.75050354 C-81.56422804 277.33905831 -81.56659671 270.92762644 -81.56723571 264.51617575 C-81.56773151 260.50362256 -81.57002258 256.49107167 -81.57273293 252.47851944 C-81.58152946 239.18260424 -81.58615395 225.88669707 -81.58540245 212.59077893 C-81.5853625 211.87562474 -81.58532254 211.16047055 -81.58528137 210.42364502 C-81.58524049 209.70760542 -81.58519961 208.99156583 -81.58515749 208.25382806 C-81.58475145 196.66181629 -81.59431308 185.06983706 -81.60841974 173.47783469 C-81.6228299 161.54108106 -81.62968736 149.60434326 -81.62882596 137.66758072 C-81.62849556 130.9797863 -81.63137156 124.29203327 -81.64200401 117.60424423 C-81.6517402 111.30867183 -81.65172656 105.01317109 -81.64448738 98.71759605 C-81.64344833 96.4187694 -81.64576362 94.11993815 -81.65184784 91.82111931 C-81.71766602 65.21020586 -80.92958568 38.96167775 -61.25544739 18.87091064 C-44.53715702 2.8844743 -22.26892792 -0.02147652 0 0 Z " fill="#D94444" transform="translate(81.39997863769531,-0.14044189453125)"/>
<path d="M0 0 C19.81036349 15.72415275 27.80727319 36.26601137 30.875 60.875 C31.36581999 66.80539686 31.36116899 72.74099113 31.3125 78.6875 C31.30979095 79.46981995 31.30708191 80.25213989 31.30429077 81.0581665 C31.23993062 93.34985838 30.44038763 105.03849045 26.875 116.875 C26.68244629 117.53564453 26.48989258 118.19628906 26.29150391 118.87695312 C22.44011583 131.73421858 16.2262287 141.34672566 6.875 150.875 C6.26011719 151.514375 5.64523437 152.15375 5.01171875 152.8125 C-7.4991131 164.81432584 -25.54928271 169.34982231 -42.48046875 169.01171875 C-50.91101964 168.57587048 -57.86470436 166.87487839 -65.4375 163.1875 C-66.09508301 162.87296875 -66.75266602 162.5584375 -67.43017578 162.234375 C-71.12524392 160.33037424 -73.95339058 158.21182561 -76.86010742 155.22729492 C-77.47585129 154.59893234 -78.09159515 153.97056976 -78.72599792 153.32316589 C-79.18766861 152.84527115 -79.64933929 152.3673764 -80.125 151.875 C-80.12864563 152.69297058 -80.13229126 153.51094116 -80.13604736 154.35369873 C-80.17392092 162.06397929 -80.23076561 169.77377631 -80.30890274 177.48374557 C-80.34840509 181.44751385 -80.38057975 185.41105906 -80.39599609 189.375 C-80.41114497 193.20078819 -80.44555775 197.02596326 -80.49330902 200.85147858 C-80.50814133 202.31064778 -80.51604208 203.76990452 -80.51688385 205.22914886 C-80.51924995 207.27419829 -80.54629482 209.3175483 -80.57910156 211.36230469 C-80.59242523 213.10770538 -80.59242523 213.10770538 -80.60601807 214.8883667 C-81.23451544 218.50523865 -82.26000703 219.65121073 -85.125 221.875 C-88.03833008 223.06347656 -88.03833008 223.06347656 -91.39453125 224.015625 C-93.22274414 224.53769531 -93.22274414 224.53769531 -95.08789062 225.0703125 C-96.99344727 225.59238281 -96.99344727 225.59238281 -98.9375 226.125 C-100.19626953 226.48851562 -101.45503906 226.85203125 -102.75195312 227.2265625 C-114.11884213 230.41432473 -114.11884213 230.41432473 -120.125 229.875 C-122.14874337 226.83938495 -122.37529614 226.27494437 -122.37947559 222.8753891 C-122.38530779 222.05963488 -122.39113998 221.24388066 -122.39714891 220.40340662 C-122.39336958 219.50760055 -122.38959026 218.61179448 -122.38569641 217.68884277 C-122.38952196 216.7369285 -122.39334751 215.78501422 -122.39728898 214.80425406 C-122.40764394 211.60056703 -122.4036221 208.39705839 -122.3996582 205.19335938 C-122.40400326 202.90224541 -122.40918571 200.61113291 -122.41514587 198.32002258 C-122.42856839 192.08671022 -122.429111 185.85345836 -122.42658257 179.62013435 C-122.4255152 174.42344022 -122.43039016 169.22675846 -122.435188 164.03006697 C-122.44692975 151.07373462 -122.44605163 138.11744102 -122.43963119 125.161107 C-122.4344602 113.90183408 -122.4457212 102.64264762 -122.46472941 91.3833918 C-122.4840869 79.82889427 -122.49207579 68.27444793 -122.48860615 56.71993303 C-122.48678882 50.23030614 -122.48947427 43.74075846 -122.50332069 37.25114441 C-122.51584846 31.15103049 -122.51400299 25.05109033 -122.50090981 18.95097923 C-122.49853353 16.70755646 -122.50131601 14.46412165 -122.50953293 12.22071266 C-122.51991329 9.16732266 -122.51197014 6.11452519 -122.4992218 3.06115723 C-122.50659609 2.16535116 -122.51397037 1.26954509 -122.52156812 0.34659338 C-122.51436158 -0.46916084 -122.50715503 -1.28491506 -122.49973011 -2.1253891 C-122.49978513 -2.83042242 -122.49984014 -3.53545573 -122.49989682 -4.26185369 C-122.00174995 -6.73752286 -121.12649425 -7.61974113 -119.125 -9.125 C-116.43225107 -9.43534119 -113.97508491 -9.56927049 -111.28125 -9.55859375 C-110.51574829 -9.5638356 -109.75024658 -9.56907745 -108.96154785 -9.57447815 C-107.34433199 -9.58089682 -105.72706944 -9.5795633 -104.10986328 -9.57104492 C-101.63359653 -9.56252956 -99.15963281 -9.59130278 -96.68359375 -9.62304688 C-95.11197986 -9.62465886 -93.54036188 -9.62408141 -91.96875 -9.62109375 C-91.22806274 -9.63232773 -90.48737549 -9.64356171 -89.72424316 -9.65513611 C-84.61102975 -9.58570118 -84.61102975 -9.58570118 -82.16674805 -7.26879883 C-80.85943278 -4.57849292 -80.61486526 -2.35473635 -80.4375 0.625 C-80.37175781 1.60984375 -80.30601563 2.5946875 -80.23828125 3.609375 C-80.18220703 4.73085937 -80.18220703 4.73085937 -80.125 5.875 C-78.9184375 4.328125 -78.9184375 4.328125 -77.6875 2.75 C-58.66929015 -19.24535952 -21.74122365 -15.52944546 0 0 Z M-69.875 33.625 C-83.39131567 53.14856707 -83.22585664 79.25038749 -79.125 101.875 C-76.44414136 112.84332068 -71.77859504 123.43926997 -62.125 129.875 C-54.63390839 134.05272417 -45.66123323 134.97083175 -37.37890625 132.71875 C-27.62452759 129.0671975 -21.09035403 123.16849073 -16.65625 113.7578125 C-14.02398394 107.25366671 -12.10121766 100.82073252 -11.125 93.875 C-11.00253906 93.10800781 -10.88007812 92.34101563 -10.75390625 91.55078125 C-8.37508725 72.84327874 -10.12543084 50.68688067 -21.125 34.875 C-26.12489152 28.45687002 -32.01051176 25.33628236 -39.75 23.125 C-52.03451193 21.83189348 -61.13370764 24.88370764 -69.875 33.625 Z " fill="#E5474E" transform="translate(1488.125,113.125)"/>
<path d="M0 0 C0.70640625 0.51046875 1.4128125 1.0209375 2.140625 1.546875 C20.67854761 16.28963235 26.81981767 41.98882774 29.5703125 64.36328125 C30.08172089 69.22348181 30.18366943 74.05351884 30.1875 78.9375 C30.19974609 79.78634766 30.21199219 80.63519531 30.22460938 81.50976562 C30.22654297 82.31994141 30.22847656 83.13011719 30.23046875 83.96484375 C30.23457764 84.6930835 30.23868652 85.42132324 30.24291992 86.17163086 C30 88 30 88 28 90 C26.03599358 90.26171303 26.03599358 90.26171303 23.58346558 90.2784729 C22.6551593 90.28963638 21.72685303 90.30079987 20.77041626 90.31230164 C19.23833023 90.31554192 19.23833023 90.31554192 17.67529297 90.31884766 C16.60210815 90.32889328 15.52892334 90.3389389 14.42321777 90.34928894 C10.86287999 90.38027091 7.30261789 90.39719778 3.7421875 90.4140625 C1.27881207 90.43276207 -1.18455688 90.45233455 -3.6479187 90.4727478 C-10.1416238 90.52420294 -16.6353497 90.56375694 -23.12915039 90.60089111 C-29.75151775 90.64084705 -36.3737976 90.69197764 -42.99609375 90.7421875 C-55.99733337 90.83910516 -68.99862308 90.9238383 -82 91 C-81.85315096 92.93082997 -81.70232501 94.86135778 -81.54980469 96.79174805 C-81.46623718 97.86684128 -81.38266968 98.94193451 -81.29656982 100.04960632 C-80.54356862 107.54075952 -77.46560837 115.66269229 -72 121 C-59.64822556 130.59361122 -47.24874874 132.4441619 -32 131 C-19.888994 128.65977286 -11.72290924 122.53320615 -4.23828125 112.9765625 C-2 111 -2 111 0.7578125 110.31640625 C5.59494004 111.33628254 8.5105742 114.12357173 12.1875 117.3125 C12.89841797 117.90740234 13.60933594 118.50230469 14.34179688 119.11523438 C16.24968589 120.72159437 18.14146185 122.3368188 20 124 C20.56050049 124.50023682 21.12100098 125.00047363 21.69848633 125.51586914 C23 127 23 127 23.40625 129.8828125 C22.67579322 135.48766358 18.66926468 138.91881442 15 143 C14.38769531 143.70640625 13.77539062 144.4128125 13.14453125 145.140625 C-0.89824991 160.35114276 -21.72755013 166.207245 -41.80859375 167.12890625 C-61.20007233 167.51519068 -80.48172646 162.63883344 -95.3125 149.625 C-96.89244082 148.10121217 -98.4558753 146.56007091 -100 145 C-100.69738281 144.33613281 -101.39476562 143.67226563 -102.11328125 142.98828125 C-110.61388256 134.32261972 -115.41702273 122.85669925 -118.875 111.375 C-119.06602295 110.74400391 -119.2570459 110.11300781 -119.45385742 109.46289062 C-122.69830832 97.77403896 -123.36450549 85.82055045 -123.3125 73.75 C-123.31067719 73.07534698 -123.30885437 72.40069397 -123.30697632 71.70559692 C-123.20051773 48.22194212 -119.03724692 24.88187867 -102.26953125 7.15234375 C-75.224381 -18.49632714 -30.38254376 -22.2547295 0 0 Z M-73 31 C-79.89142089 39.9118602 -82 48.88604305 -82 60 C-58.57 60 -35.14 60 -11 60 C-12.12742648 47.59830874 -13.89405109 37.9151576 -23 29 C-37.77429226 17.76864568 -59.44164017 17.17404096 -73 31 Z " fill="#E5474E" transform="translate(790,115)"/>
<path d="M0 0 C1.27605103 0.00424484 2.55210205 0.00848969 3.86682129 0.01286316 C7.23386894 0.02674941 10.60028876 0.0536288 13.96716309 0.0869751 C17.41294983 0.1178484 20.85880185 0.13140508 24.3046875 0.14648438 C31.04704626 0.17946972 37.78911194 0.22960675 44.53125 0.29296875 C44.67152029 24.63233024 44.77727029 48.971631 44.84212303 73.31131554 C44.87303805 84.61311749 44.91517378 95.91466803 44.98388672 107.21630859 C45.04376054 117.06883688 45.08241626 126.92118306 45.09578097 136.77388823 C45.10359117 141.98909976 45.12189806 147.20379039 45.16563034 152.41883469 C45.20649736 157.33222309 45.21889059 162.24487834 45.20989609 167.15842056 C45.21154044 168.95709982 45.22339135 170.75580477 45.24648285 172.55433655 C45.36592736 182.34144671 45.29513758 190.51142304 38.53125 198.29296875 C32.98916437 203.95940161 28.2243158 206.49545169 20.22380066 206.59651184 C19.42162613 206.59560043 18.6194516 206.59468903 17.79296875 206.59375 C16.95337112 206.59803513 16.1137735 206.60232025 15.24873352 206.60673523 C13.47613423 206.61246447 11.70351143 206.61298917 9.9309082 206.60864258 C7.23802896 206.60549131 4.54625853 206.62892849 1.85351562 206.65429688 C0.12500137 206.65657109 -1.6035158 206.6572728 -3.33203125 206.65625 C-4.12813309 206.66545975 -4.92423492 206.67466949 -5.74446106 206.68415833 C-12.86280983 206.62612844 -19.21567833 204.95425377 -24.71875 200.16796875 C-25.34265625 199.64976562 -25.9665625 199.1315625 -26.609375 198.59765625 C-33.31751431 190.28294576 -33.03765567 181.18271756 -32.97045898 170.97631836 C-32.97424711 169.33281492 -32.97975121 167.68931469 -32.98683167 166.04582214 C-33.00073816 161.60367379 -32.98965096 157.16191485 -32.97312045 152.71978831 C-32.95922072 148.06038694 -32.96573554 143.40100705 -32.96925354 138.74159241 C-32.97195151 130.91970581 -32.95851473 123.09797304 -32.93530273 115.27612305 C-32.90868631 106.24479344 -32.90695041 97.21372076 -32.9186911 88.18236536 C-32.92948526 79.47758266 -32.92326955 70.77289251 -32.90913582 62.06811714 C-32.90339117 58.37093469 -32.90344668 54.6738203 -32.90820122 50.97663689 C-32.91298778 46.62052431 -32.90280006 42.26469166 -32.88124657 37.90863228 C-32.87570169 36.31395029 -32.87519219 34.71924127 -32.88019943 33.1245575 C-32.92706025 16.05485492 -32.92706025 16.05485492 -27.70703125 8.8671875 C-27.07152344 8.24457031 -26.43601562 7.62195313 -25.78125 6.98046875 C-24.84732422 6.02720703 -24.84732422 6.02720703 -23.89453125 5.0546875 C-16.43944812 -0.35955162 -8.87186829 -0.11192111 0 0 Z " fill="#FEFAFA" transform="translate(133.46875,93.70703125)"/>
<path d="M0 0 C8.51567675 7.27726499 15.56422622 15.90503179 17.60546875 27.2265625 C17.6733755 29.47563402 17.69046859 31.72657855 17.66796875 33.9765625 C17.65894531 35.14703125 17.64992188 36.3175 17.640625 37.5234375 C17.62322266 38.86148438 17.62322266 38.86148438 17.60546875 40.2265625 C13.99120717 42.4925625 10.96734583 42.47124606 6.7578125 42.45703125 C5.77815269 42.45634392 5.77815269 42.45634392 4.77870178 42.4556427 C3.40282364 42.45263086 2.02694858 42.44477658 0.65112305 42.43237305 C-1.45341073 42.41409395 -3.5575044 42.41186371 -5.66210938 42.41210938 C-15.95117704 42.37434724 -15.95117704 42.37434724 -19.39453125 41.2265625 C-20.23828125 38.8984375 -20.23828125 38.8984375 -20.89453125 35.9765625 C-22.13345811 30.51938466 -23.28279723 26.5690432 -28.171875 23.4609375 C-29.21472656 22.97109375 -30.25757813 22.48125 -31.33203125 21.9765625 C-32.89244141 21.22632813 -32.89244141 21.22632813 -34.484375 20.4609375 C-44.14029446 16.36527233 -58.04754379 16.52736974 -67.83203125 20.0390625 C-72.33195158 21.97395411 -76.4708701 23.82514558 -79.20703125 27.9765625 C-80.97750447 32.82206815 -81.10698076 36.41005215 -79.21484375 41.234375 C-72.42071495 52.40240646 -51.26900445 54.96746944 -39.74316406 58.2578125 C4.47802842 71.05087839 4.47802842 71.05087839 15.66796875 89.7890625 C16.35669506 91.24875109 17.00422153 92.72871855 17.60546875 94.2265625 C17.92 94.95875 18.23453125 95.6909375 18.55859375 96.4453125 C22.87655483 108.22156999 21.63360808 121.91697907 16.60546875 133.2265625 C9.50453655 146.29830506 -2.39506761 155.30316491 -16.43896484 159.89501953 C-43.22141589 167.78912354 -73.8615302 166.43954017 -98.64453125 153.0390625 C-109.52886479 146.30528815 -117.03303321 137.53930649 -121.02734375 125.28515625 C-121.54171238 122.40140874 -121.64374635 119.59182203 -121.70703125 116.6640625 C-121.76310547 114.96056641 -121.76310547 114.96056641 -121.8203125 113.22265625 C-121.39453125 110.2265625 -121.39453125 110.2265625 -119.79150391 108.56201172 C-116.59947339 106.783604 -114.26213671 106.85425729 -110.6171875 106.86328125 C-109.29912109 106.86392578 -107.98105469 106.86457031 -106.62304688 106.86523438 C-105.93895752 106.87353271 -105.25486816 106.88183105 -104.55004883 106.89038086 C-102.46721569 106.91394727 -100.38566683 106.91094061 -98.30273438 106.90429688 C-86.67755083 106.96676733 -86.67755083 106.96676733 -82.39453125 109.2265625 C-81.6796875 111.36328125 -81.6796875 111.36328125 -81.45703125 113.9140625 C-80.5671902 119.47757318 -78.80253137 122.69116649 -74.39453125 126.2265625 C-62.95831721 133.17126661 -49.89437029 134.14952222 -36.84375 131.5078125 C-31.03554786 129.5155108 -25.56546119 126.7796762 -22.265625 121.37890625 C-20.66120943 117.41463281 -20.88228802 113.42012704 -21.39453125 109.2265625 C-24.1485238 103.3251499 -30.6905285 101.58337627 -36.39453125 99.2265625 C-40.31889803 97.81875492 -44.2843317 96.57496421 -48.26953125 95.3515625 C-50.47416345 94.65690064 -52.67858729 93.96157719 -54.8828125 93.265625 C-58.03220637 92.27821734 -61.18215118 91.29268648 -64.33349609 90.31152344 C-82.67538698 84.56865398 -103.04557737 77.91121858 -114.39453125 61.2265625 C-121.42083704 47.41058816 -122.13980321 33.96566479 -117.39453125 19.2265625 C-111.29955918 4.45797632 -99.60162162 -4.08177358 -85.25 -10.08984375 C-58.40805846 -19.62348223 -23.08029679 -17.78481744 0 0 Z " fill="#E5474E" transform="translate(956.39453125,116.7734375)"/>
<path d="M0 0 C0.72703125 0.53109375 1.4540625 1.0621875 2.203125 1.609375 C13.32431633 10.453787 21.12680288 24.60735603 22.9375 38.625 C23.26961005 42.26009551 23.14540311 42.78189534 21 46 C18.52378661 46.67207239 16.20862943 47.16373503 13.6875 47.5625 C12.61749756 47.74582886 12.61749756 47.74582886 11.52587891 47.93286133 C9.35246999 48.30122342 7.17663762 48.65129836 5 49 C3.14955078 49.31324219 3.14955078 49.31324219 1.26171875 49.6328125 C-12.64939186 51.91121816 -12.64939186 51.91121816 -15.7890625 49.79296875 C-17.23155891 47.65714343 -17.76978818 45.81587616 -18.375 43.3125 C-20.70399821 35.06496511 -24.8318329 28.81209624 -32 24 C-41.79244272 18.73361757 -52.40361218 17.22025016 -63.25 20.1875 C-70.99207651 22.85504239 -77.55595045 26.99004089 -82 34 C-87.5169524 45.65093237 -88.35349262 57.84192207 -88.31567383 70.53222656 C-88.31252443 72.73293172 -88.33602045 74.93227334 -88.36132812 77.1328125 C-88.42566631 91.41648851 -87.20995969 106.46188984 -77.625 117.8125 C-76.75875 118.534375 -75.8925 119.25625 -75 120 C-74.51015625 120.42925781 -74.0203125 120.85851562 -73.515625 121.30078125 C-66.35793024 127.07806345 -57.02937891 128.9207059 -48 128 C-38.60475838 126.69465768 -30.55132045 122.9524217 -24 116 C-20.79059852 111.72079803 -19.22612247 107.03339849 -17.80859375 101.91796875 C-17 100 -17 100 -14 98 C-6.36631741 97.74634915 1.51948945 99.27137336 9.0625 100.375 C10.29419922 100.5455188 10.29419922 100.5455188 11.55078125 100.71948242 C19.09968311 101.89196811 19.09968311 101.89196811 22 105 C23.70700752 114.81529322 18.37257003 125.51263027 12.9609375 133.37890625 C-0.24896902 151.03597253 -17.77657759 159.77522393 -39.3984375 163.40234375 C-60.99507603 166.2481102 -83.7259028 161.6363249 -101.1875 148.25 C-120.15090542 132.20404156 -127.39066957 111.95749745 -129.77294922 87.89941406 C-131.93647013 60.27148472 -129.77880466 29.43924412 -111.29589844 7.35473633 C-83.36163831 -24.35998711 -32.40230499 -24.34966114 0 0 Z " fill="#E5474E" transform="translate(1123,118)"/>
<path d="M0 0 C2 2 2 2 2.24050903 3.91091919 C2.23606781 4.68813324 2.23162659 5.46534729 2.22705078 6.26611328 C2.22689972 7.14687531 2.22674866 8.02763733 2.22659302 8.93508911 C2.21627045 9.88721283 2.20594788 10.83933655 2.1953125 11.8203125 C2.1924826 12.79410858 2.18965271 13.76790466 2.18673706 14.77120972 C2.17551913 17.88926349 2.1504117 21.00703268 2.125 24.125 C2.11497228 26.23567294 2.10584607 28.34635038 2.09765625 30.45703125 C2.07557458 35.63811835 2.04208129 40.81903885 2 46 C3.71098877 45.98428955 3.71098877 45.98428955 5.45654297 45.96826172 C9.67949294 45.93212283 13.90242919 45.90912188 18.12548828 45.89013672 C19.95493873 45.88006516 21.78437303 45.86640724 23.61376953 45.84912109 C26.23994934 45.82492323 28.86591675 45.81352868 31.4921875 45.8046875 C32.31306854 45.79436493 33.13394958 45.78404236 33.97970581 45.77340698 C35.98789142 45.77300816 37.99555382 45.8775046 40 46 C43.36551496 49.36551496 42.29719582 53.81489719 42.32226562 58.38671875 C42.32009033 59.06138184 42.31791504 59.73604492 42.31567383 60.43115234 C42.31251166 62.49239856 42.33597703 64.5522124 42.36132812 66.61328125 C42.36197266 67.90621094 42.36261719 69.19914062 42.36328125 70.53125 C42.36626221 71.72298828 42.36924316 72.91472656 42.37231445 74.14257812 C42.24945068 75.08552734 42.12658691 76.02847656 42 77 C38.16327717 79.55781522 35.05464013 79.25306456 30.61328125 79.1953125 C29.79627243 79.1924826 28.97926361 79.18965271 28.13749695 79.18673706 C25.52901541 79.17554541 22.9208777 79.1504429 20.3125 79.125 C18.54362475 79.11496888 16.77474412 79.10584326 15.00585938 79.09765625 C10.67044051 79.07560942 6.33527855 79.0410867 2 79 C2.06129969 90.59653235 2.13846993 102.19284129 2.23571491 113.78913116 C2.28037857 119.1741841 2.31964364 124.55916208 2.34643555 129.94433594 C2.3725083 135.14458059 2.41293908 140.34453617 2.46318626 145.54460144 C2.47982808 147.52520645 2.49135904 149.50586144 2.49761391 151.48652649 C2.50728417 154.2680162 2.53537843 157.04877083 2.56762695 159.83007812 C2.56619186 160.64288239 2.56475677 161.45568665 2.5632782 162.29312134 C2.65352544 167.82299364 3.83610845 171.90638564 6 177 C6.33 177.99 6.66 178.98 7 180 C8.73142854 181.15922128 8.73142854 181.15922128 11 182 C11.83917969 182.34160156 12.67835937 182.68320313 13.54296875 183.03515625 C18.71498822 184.47864643 23.84291959 184.3580361 29.1875 184.390625 C30.00476562 184.41382813 30.82203125 184.43703125 31.6640625 184.4609375 C32.40092285 184.46915527 33.1377832 184.47737305 33.89697266 184.48583984 C36.95703783 185.23398208 38.12537703 186.495822 40 189 C40.50170898 191.86914062 40.50170898 191.86914062 40.49609375 195.15625 C40.49673828 196.34347656 40.49738281 197.53070313 40.49804688 198.75390625 C40.47806641 199.99011719 40.45808594 201.22632813 40.4375 202.5 C40.44458984 203.73621094 40.45167969 204.97242188 40.45898438 206.24609375 C40.39640076 215.11371122 40.39640076 215.11371122 38.94824219 218.3515625 C36.01995547 220.82923066 33.05690056 220.57233448 29.39453125 220.53125 C28.63766525 220.5350769 27.88079926 220.53890381 27.10099792 220.54284668 C25.49122801 220.54557099 23.88141422 220.53817337 22.27172852 220.52148438 C19.8656239 220.5004641 17.46263992 220.52106009 15.05664062 220.546875 C0.17878026 220.57422824 -15.30720624 218.76565697 -26.796875 208.375 C-39.36406619 194.93681536 -37.27713076 175.31750788 -37.1953125 158.296875 C-37.19157668 156.00474166 -37.1887324 153.71260671 -37.18673706 151.42047119 C-37.17914543 145.42331438 -37.15953583 139.42625631 -37.1373291 133.42913818 C-37.11677383 127.29522029 -37.10771474 121.16128625 -37.09765625 115.02734375 C-37.07628531 103.01818607 -37.04220402 91.00910129 -37 79 C-37.65073486 79.01571045 -38.30146973 79.0314209 -38.97192383 79.04760742 C-41.91869424 79.10994649 -44.86532598 79.14898684 -47.8125 79.1875 C-48.83666016 79.21263672 -49.86082031 79.23777344 -50.91601562 79.26367188 C-51.89892578 79.27333984 -52.88183594 79.28300781 -53.89453125 79.29296875 C-54.80050049 79.3086792 -55.70646973 79.32438965 -56.63989258 79.34057617 C-59 79 -59 79 -60.79582214 77.65490723 C-62.63329251 75.12966316 -62.37167123 72.9919499 -62.36328125 69.90625 C-62.36263672 68.71128906 -62.36199219 67.51632813 -62.36132812 66.28515625 C-62.34521484 65.03605469 -62.32910156 63.78695312 -62.3125 62.5 C-62.31572266 61.25089844 -62.31894531 60.00179687 -62.32226562 58.71484375 C-62.26700255 49.40050383 -62.26700255 49.40050383 -60 46 C-57.66162109 45.65942383 -57.66162109 45.65942383 -54.7734375 45.70703125 C-53.2265625 45.7215332 -53.2265625 45.7215332 -51.6484375 45.73632812 C-50.56820313 45.76146484 -49.48796875 45.78660156 -48.375 45.8125 C-47.28703125 45.82603516 -46.1990625 45.83957031 -45.078125 45.85351562 C-42.38492591 45.88895246 -39.69270626 45.93835669 -37 46 C-37.01047363 44.98574951 -37.02094727 43.97149902 -37.03173828 42.92651367 C-37.06793589 39.16385426 -37.09089956 35.40121024 -37.10986328 31.63842773 C-37.11992142 30.00982068 -37.13356958 28.38123168 -37.15087891 26.75268555 C-37.17513574 24.41190128 -37.18648483 22.07135576 -37.1953125 19.73046875 C-37.20563507 19.00224411 -37.21595764 18.27401947 -37.22659302 17.52372742 C-37.22742249 13.78724931 -37.12883296 12.19324944 -35 9 C-32.09838867 7.83325195 -32.09838867 7.83325195 -28.41796875 6.73828125 C-27.76677567 6.54276169 -27.11558258 6.34724213 -26.44465637 6.14579773 C-25.06679801 5.73474941 -23.68731918 5.3290999 -22.30639648 4.9284668 C-20.20195985 4.3167035 -18.10385291 3.68619784 -16.00585938 3.05273438 C-4.15879134 -0.45878914 -4.15879134 -0.45878914 0 0 Z " fill="#E5474E" transform="translate(1590,58)"/>
<path d="M0 0 C0.89309372 -0.00686325 1.78618744 -0.0137265 2.7063446 -0.02079773 C5.65717481 -0.03909343 8.60747489 -0.03522506 11.55834961 -0.02954102 C13.60811029 -0.03410074 15.65786943 -0.03940568 17.70762634 -0.04542542 C22.00241306 -0.05436141 26.29701387 -0.05192691 30.59179688 -0.04199219 C36.1024779 -0.03048848 41.61251949 -0.05073316 47.12311649 -0.07990932 C51.35497631 -0.09822906 55.58668159 -0.09798755 59.81857109 -0.0922718 C61.85080298 -0.09211814 63.88304505 -0.09819928 65.91523933 -0.11056328 C68.75249882 -0.12539567 71.58855999 -0.11485444 74.42578125 -0.09765625 C75.26897919 -0.10732422 76.11217712 -0.11699219 76.98092651 -0.12695312 C82.63950383 -0.0549128 82.63950383 -0.0549128 85.16908264 2.22740173 C86.60328553 5.41576347 86.53751702 8.16822584 86.54663086 11.65405273 C86.54950104 12.34917969 86.55237122 13.04430664 86.55532837 13.76049805 C86.5573647 15.22632667 86.55186492 16.69218274 86.53930664 18.15795898 C86.52324496 20.3968605 86.53916794 22.63395711 86.55834961 24.87280273 C86.5563671 26.29989004 86.55252326 27.72697622 86.54663086 29.15405273 C86.54324707 30.44827148 86.53986328 31.74249023 86.53637695 33.07592773 C86.1146054 36.69202193 85.66571914 37.8582619 83.14819336 40.40405273 C80.75083923 40.91630554 80.75083923 40.91630554 77.88232422 40.93408203 C76.80788559 40.95057297 75.73344696 40.9670639 74.62644958 40.98405457 C73.46702347 40.98214615 72.30759735 40.98023773 71.11303711 40.97827148 C69.92343887 40.99243607 68.73384064 41.00660065 67.50819397 41.02119446 C63.70060233 41.06320769 59.89348454 41.07835706 56.08569336 41.09155273 C52.27455228 41.12056853 48.46353296 41.15507815 44.65248108 41.19404602 C42.27870672 41.21660149 39.90485686 41.23237922 37.5309906 41.2408905 C36.45970413 41.24792496 35.38841766 41.25495941 34.28466797 41.26220703 C32.86594643 41.26742622 32.86594643 41.26742622 31.41856384 41.27275085 C29.11514941 41.25606361 29.11514941 41.25606361 27.14819336 42.40405273 C27.1467268 43.06519703 27.14526024 43.72634132 27.14374924 44.40752029 C27.10670705 60.49027069 27.04772705 76.57276806 26.96429062 92.65533829 C26.92447116 100.43274535 26.89209352 108.2100508 26.87719727 115.98754883 C26.86419572 122.76596475 26.8372697 129.54415737 26.79358029 136.32244754 C26.77093138 139.91198383 26.7552847 143.50124437 26.75630951 147.09085846 C26.75719243 151.09694065 26.72699008 155.10220712 26.6940918 159.1081543 C26.70163734 160.89595055 26.70163734 160.89595055 26.70933533 162.71986389 C26.68846611 164.35625069 26.68846611 164.35625069 26.66717529 166.0256958 C26.66164454 167.44710058 26.66164454 167.44710058 26.65600204 168.89722061 C25.99165195 172.17683006 24.76271235 173.37309628 22.14819336 175.40405273 C19.5032559 175.79027788 17.2832537 175.94300138 14.64428711 175.90014648 C13.5647451 175.90232933 13.5647451 175.90232933 12.46339417 175.90455627 C10.94625793 175.90290034 9.42910437 175.89137299 7.91210938 175.87060547 C5.58968895 175.84160263 3.26954583 175.85000993 0.94702148 175.86303711 C-0.52890106 175.85680063 -2.00481642 175.84841039 -3.48071289 175.83764648 C-4.17451553 175.84058212 -4.86831818 175.84351776 -5.58314514 175.84654236 C-8.43040528 175.79077017 -10.38504745 175.73345565 -12.75 174.06445312 C-15.13772951 170.46619289 -14.97956415 167.15091609 -14.98551941 162.9647522 C-14.98778497 162.30826482 -14.99005052 161.65177745 -14.99238473 160.97539651 C-14.99872447 158.77142168 -14.99789538 156.56750834 -14.99707031 154.36352539 C-15.00006183 152.78500794 -15.00346434 151.20649122 -15.00724792 149.62797546 C-15.0160931 145.33662803 -15.01842626 141.04530054 -15.01906371 136.75394487 C-15.0200126 133.17290548 -15.02369068 129.59187075 -15.02723581 126.01083314 C-15.03538241 117.56247686 -15.03781986 109.11413124 -15.03710938 100.66577148 C-15.03650858 91.94811513 -15.04706025 83.23052066 -15.06285304 74.51287997 C-15.07592489 67.03084701 -15.08129342 59.54883428 -15.08065397 52.06678998 C-15.08039886 47.59702148 -15.08325669 43.12730795 -15.09383202 38.65755081 C-15.10350696 34.45344707 -15.10359633 30.24945092 -15.09631538 26.0453434 C-15.09526878 24.50260956 -15.09763695 22.95986905 -15.10367584 21.41714668 C-15.11138815 19.3104112 -15.10675623 17.20404797 -15.0990448 15.09732056 C-15.09986195 13.32917464 -15.09986195 13.32917464 -15.10069561 11.52530861 C-14.78287162 7.53955549 -13.93421361 4.63485498 -11.28004456 1.61680603 C-7.62206783 -0.21012506 -3.99999378 -0.02140647 0 0 Z " fill="#E5474E" transform="translate(1182.851806640625,103.595947265625)"/>
<path d="M0 0 C0.77664001 -0.01113831 1.55328003 -0.02227661 2.35345459 -0.03375244 C3.19103302 -0.01532288 4.02861145 0.00310669 4.89157104 0.02209473 C6.23143066 0.01596161 6.23143066 0.01596161 7.59835815 0.00970459 C10.54442842 0.00369872 13.48824829 0.04060111 16.43405151 0.07873535 C18.48237555 0.08485211 20.5307079 0.08860315 22.57904053 0.09008789 C26.86811243 0.09928727 31.15643186 0.12811344 35.44528198 0.17248535 C40.94795535 0.22912153 46.45003716 0.25091605 51.95297432 0.25984955 C56.18056168 0.26815462 60.40802907 0.28778553 64.63555527 0.31159973 C66.66497716 0.32300713 68.69441057 0.33252389 70.72385025 0.34013367 C73.55600598 0.35385398 76.38769053 0.38111338 79.21969604 0.41271973 C80.48213638 0.4160733 80.48213638 0.4160733 81.77008057 0.41949463 C85.66124851 0.47713177 87.61566175 0.52793385 90.92623901 2.73498535 C91.21801171 5.47784004 91.32229699 7.99156074 91.28952026 10.73498535 C91.29026802 11.92221191 91.29026802 11.92221191 91.29103088 13.13342285 C91.2886889 14.80792754 91.27895303 16.48243564 91.26242065 18.15686035 C91.23883177 20.72488775 91.24185789 23.29187721 91.24850464 25.85998535 C91.24292789 27.48499156 91.23581803 29.10999339 91.22702026 30.73498535 C91.22793167 31.50584473 91.22884308 32.2767041 91.2297821 33.07092285 C91.15726448 38.50395988 91.15726448 38.50395988 88.92623901 40.73498535 C86.6491394 41.00672913 86.6491394 41.00672913 83.77389526 41.03796387 C82.16212402 41.06292686 82.16212402 41.06292686 80.51779175 41.08839417 C79.35320435 41.09680832 78.18861694 41.10522247 76.98873901 41.1138916 C75.79772583 41.13088608 74.60671265 41.14788055 73.37960815 41.16539001 C69.56187279 41.21867637 65.74414897 41.25888428 61.92623901 41.29748535 C58.10838548 41.34136046 54.29061811 41.38803748 50.47286987 41.44029236 C48.09354076 41.47233154 45.71413552 41.49919568 43.33468628 41.52052307 C41.72291504 41.54075783 41.72291504 41.54075783 40.07858276 41.56140137 C39.1297522 41.57091324 38.18092163 41.58042511 37.20333862 41.59022522 C34.89444702 41.58856196 34.89444702 41.58856196 32.92623901 42.73498535 C32.92477245 43.39612965 32.92330589 44.05727394 32.92179489 44.73845291 C32.8847527 60.82120331 32.8257727 76.90370068 32.74233627 92.9862709 C32.70251681 100.76367797 32.67013917 108.54098342 32.65524292 116.31848145 C32.64224137 123.09689736 32.61531535 129.87508999 32.57162595 136.65338016 C32.54897703 140.24291645 32.53333036 143.83217699 32.53435516 147.42179108 C32.53523809 151.42787327 32.50503574 155.43313974 32.47213745 159.43908691 C32.479683 161.22688316 32.479683 161.22688316 32.48738098 163.05079651 C32.46651176 164.6871833 32.46651176 164.6871833 32.44522095 166.35662842 C32.43969019 167.7780332 32.43969019 167.7780332 32.4340477 169.22815323 C31.76978335 172.50733939 30.53927084 173.70307306 27.92623901 175.73498535 C25.29359962 176.1334145 23.08611733 176.2971423 20.45748901 176.26623535 C19.74016602 176.27006226 19.02284302 176.27388916 18.28378296 176.27783203 C16.77086988 176.28054762 15.25790956 176.2732109 13.74508667 176.25646973 C11.43330925 176.23505086 9.12463888 176.25627886 6.81295776 176.28186035 C5.34029468 176.27921701 3.86763352 176.27409188 2.39498901 176.26623535 C1.70634766 176.27433228 1.0177063 176.2824292 0.30819702 176.29077148 C-2.81576786 176.22993648 -4.7161927 175.9994118 -7.25533962 174.12167931 C-9.67372837 170.94752291 -9.57917819 169.00072894 -9.58842468 165.03030396 C-9.59537021 164.35733351 -9.60231574 163.68436307 -9.60947174 162.99099958 C-9.62776239 160.73686695 -9.61747259 158.48378437 -9.60720825 156.22961426 C-9.61426583 154.61315625 -9.62301016 152.99670485 -9.63331604 151.38026428 C-9.65584045 146.98963439 -9.65286291 142.59936446 -9.64399457 138.20869875 C-9.63888776 134.54317949 -9.6461749 130.87772806 -9.65346664 127.21221578 C-9.670476 118.56382098 -9.66689018 109.91560257 -9.650177 101.26721191 C-9.63326057 92.34661015 -9.64908116 83.42649789 -9.68139988 74.50594962 C-9.70809843 66.84635377 -9.7153709 59.18691028 -9.7068848 51.52727258 C-9.70195559 46.9528819 -9.70417053 42.37878565 -9.72467232 37.80443192 C-9.74303324 33.5016062 -9.73706614 29.19948403 -9.71247292 24.89669609 C-9.70746595 23.31891035 -9.71095192 21.74107099 -9.72362137 20.16332817 C-9.73957253 18.005957 -9.72458678 15.85089679 -9.70195007 13.69363403 C-9.70136376 12.48759333 -9.70077745 11.28155262 -9.70017338 10.03896523 C-8.73226349 4.93377439 -5.79842505 -0.02538679 0 0 Z " fill="#E5474E" transform="translate(565.0737609863281,103.2650146484375)"/>
<path d="M0 0 C2.74285469 -0.2917727 5.25657539 -0.39605798 8 -0.36328125 C9.18722656 -0.36402901 9.18722656 -0.36402901 10.3984375 -0.36479187 C12.07294219 -0.36244989 13.74745029 -0.35271402 15.421875 -0.33618164 C17.9899024 -0.31259275 20.55689186 -0.31561887 23.125 -0.32226562 C24.75000621 -0.31668888 26.37500804 -0.30957902 28 -0.30078125 C29.15628906 -0.30214836 29.15628906 -0.30214836 30.3359375 -0.30354309 C35.76897453 -0.23102547 35.76897453 -0.23102547 38 2 C38.25447559 4.91107941 38.25447559 4.91107941 38.26069641 8.71887207 C38.26643473 9.76674983 38.26643473 9.76674983 38.27228898 10.83579683 C38.2826483 13.18813273 38.27862138 15.54022587 38.2746582 17.89257812 C38.27900303 19.57433805 38.28418541 21.25609598 38.29014587 22.93785095 C38.30357095 27.51418933 38.30411073 32.0904453 38.30158257 36.66679955 C38.30051536 40.48169706 38.30538973 44.29657773 38.310188 48.11147165 C38.32129504 57.10769306 38.32171368 66.10387271 38.31567383 75.10009766 C38.30963003 84.39438379 38.3219526 93.6885187 38.3432439 102.98277903 C38.36083007 110.95137199 38.36686604 118.91991668 38.36360615 126.88852835 C38.36178858 131.65278323 38.36447656 136.41693021 38.37832069 141.1811676 C38.39084625 145.65943345 38.38900532 150.13746258 38.37590981 154.61572456 C38.37353301 156.26292054 38.37631786 157.9101329 38.38453293 159.5573101 C38.3949096 161.79886202 38.38697432 164.03960613 38.3742218 166.28112793 C38.37438954 167.53769951 38.37455729 168.79427109 38.37473011 170.08892059 C38.25106917 171.0495768 38.12740824 172.010233 38 173 C34.34942297 175.43371802 31.59760582 175.30613523 27.375 175.30078125 C26.63169434 175.30506638 25.88838867 175.3093515 25.12255859 175.31376648 C23.55241921 175.31950451 21.98225325 175.32001391 20.41210938 175.31567383 C18.00865451 175.31251139 15.6064279 175.33598617 13.203125 175.36132812 C11.67708489 175.36360093 10.15104146 175.3643047 8.625 175.36328125 C7.90618652 175.372491 7.18737305 175.38170074 6.44677734 175.39118958 C1.53039082 175.34553763 1.53039082 175.34553763 -0.68999004 173.8990097 C-2.66139326 171.0412346 -2.37468822 168.69032619 -2.3742218 165.24353027 C-2.38018341 164.20767988 -2.38018341 164.20767988 -2.38626546 163.15090322 C-2.39590796 160.83151398 -2.38405906 158.51273174 -2.37231445 156.19335938 C-2.37474178 154.53277864 -2.37846053 152.87219937 -2.38337708 151.21162415 C-2.39279779 146.69720378 -2.38335077 142.18299977 -2.37004495 137.66859627 C-2.35874558 132.94943323 -2.36283678 128.23028108 -2.36479187 123.5111084 C-2.36567533 115.58533179 -2.35458369 107.65964063 -2.33618164 99.73388672 C-2.31501323 90.56402354 -2.31150383 81.39428557 -2.3177436 72.2244029 C-2.32343379 63.41177685 -2.31779567 54.599195 -2.30657005 45.78657532 C-2.30191949 42.0322437 -2.30105219 38.27793907 -2.3031559 34.52360535 C-2.3050364 30.10444685 -2.29695329 25.6854162 -2.2810955 21.26628685 C-2.27684472 19.64209204 -2.27600742 18.01788429 -2.27878571 16.39368629 C-2.28199682 14.18113939 -2.27295308 11.96897707 -2.26069641 9.75646973 C-2.25864354 8.51686745 -2.25659067 7.27726517 -2.25447559 6.00009918 C-2 3 -2 3 0 0 Z " fill="#E5474E" transform="translate(1297,104)"/>
<path d="M0 0 C9.15471782 6.96743555 17.10411161 17.28330877 18.77001953 28.99731445 C18.90579599 31.19654232 18.93645293 33.36327005 18.90625 35.56640625 C18.89867676 36.34878662 18.89110352 37.13116699 18.88330078 37.93725586 C18.57655708 48.8826323 15.41271641 58.36119045 8.46875 66.87890625 C7.91703125 67.56597656 7.3653125 68.25304687 6.796875 68.9609375 C-0.94633641 77.6141417 -11.73175961 82.37168992 -23.1953125 83.1171875 C-37.99094756 83.39442327 -48.27528797 79.99461163 -59.53125 69.87890625 C-64.63328156 64.5378606 -67.97462916 58.77792831 -70.53125 51.87890625 C-70.94375 50.82703125 -71.35625 49.77515625 -71.78125 48.69140625 C-74.36450066 35.55988206 -72.1092299 23.45678787 -65.28125 12.00390625 C-58.4520537 2.08360004 -48.90476471 -3.91048044 -37.546875 -7.80078125 C-24.12427305 -9.9338304 -11.204849 -7.71138315 0 0 Z " fill="#FDF7F7" transform="translate(287.53125,103.12109375)"/>
<path d="M0 0 C3.21854298 2.00627239 5.81375212 4.45678814 8.3125 7.3125 C8.869375 7.93125 9.42625 8.55 10 9.1875 C13.84166552 15.40733942 14.19876334 22.58307656 12.8828125 29.60546875 C10.95800317 36.50864295 7.20661797 41.92078394 1.0546875 45.69921875 C-6.48855463 49.15552744 -14.9830308 49.74551975 -22.9375 47.25 C-29.35829775 44.36064101 -34.27603588 40.01077793 -37.1875 33.5625 C-39.62103344 26.40313154 -39.86647687 19.49254306 -37 12.4375 C-30.37814942 -0.5970901 -13.4105094 -6.39578141 0 0 Z " fill="#E5474E" transform="translate(1327.6875,34.6875)"/>
<path d="M0 0 C2.35133123 6.36242569 -1.55094063 13.8464381 -4.21875 19.65234375 C-13.33360875 36.00079679 -27.15775167 45.89363263 -45 51 C-60.43620254 54.51783943 -76.27020435 54.14931473 -92.00024414 54.14526367 C-94.32583673 54.14825958 -96.65142882 54.15166309 -98.97702026 54.15544128 C-105.26870972 54.16424263 -111.56038556 54.1666178 -117.85208058 54.16725707 C-121.79145335 54.16796989 -125.73082271 54.17010862 -129.67019463 54.17275429 C-142.72872039 54.18151963 -155.78723765 54.18617558 -168.84576637 54.18542381 C-169.54788173 54.18538386 -170.24999709 54.1853439 -170.97338867 54.18530273 C-171.67637569 54.18526185 -172.3793627 54.18522097 -173.10365235 54.18517885 C-184.48085432 54.18477293 -195.85802311 54.19433197 -207.23521549 54.2084411 C-218.95730812 54.22286155 -230.67938463 54.22970815 -242.40148634 54.22884732 C-248.9663682 54.22859353 -255.53121249 54.23137905 -262.0960865 54.24202538 C-268.27759095 54.25177696 -274.45902246 54.2517376 -280.64052963 54.24450874 C-282.89497803 54.24347155 -285.14943114 54.24577362 -287.40387154 54.2518692 C-303.43764754 54.29237498 -319.42519973 54.17903007 -335 50 C-335 49.01 -335 48.02 -335 47 C-329.86699659 46.89733993 -325.05665004 46.98866999 -320 48 C-315.45464155 48.95070276 -315.45464155 48.95070276 -311 48 C-308.56209394 48.24754145 -306.17495982 48.55685555 -303.75495911 48.9223175 C-295.7869833 50.01662464 -287.9667488 50.2778723 -279.9206543 50.24291992 C-278.49460768 50.24399694 -277.0685615 50.2459418 -275.64251709 50.24867249 C-271.82722434 50.25345137 -268.01205154 50.245958 -264.19677329 50.23571944 C-260.18504235 50.22684109 -256.17331408 50.22869814 -252.16157532 50.2290802 C-245.44339015 50.2281491 -238.72525067 50.21953321 -232.00708008 50.20581055 C-224.24172538 50.19000752 -216.4764203 50.1848156 -208.71105069 50.1855461 C-200.41859423 50.18622074 -192.12615684 50.17929413 -183.83370614 50.1700995 C-181.44965496 50.16796914 -179.06560684 50.16725851 -176.68155479 50.16686058 C-172.9459641 50.16585776 -169.21041517 50.15976619 -165.47483826 50.14969444 C-163.44903491 50.14537418 -161.423223 50.14594142 -159.39741516 50.14663696 C-158.19636139 50.14237198 -156.99530762 50.13810699 -155.75785828 50.13371277 C-154.71212489 50.13203692 -153.66639151 50.13036108 -152.58896923 50.12863445 C-149.88346001 50.11046464 -149.88346001 50.11046464 -147 49 C-145.33703704 49.08419814 -143.67703934 49.23599305 -142.02319336 49.42919922 C-136.20697021 50.023725 -130.47173692 50.14491326 -124.62890625 50.1328125 C-123.58532455 50.13376923 -122.54174286 50.13472595 -121.46653748 50.13571167 C-119.27578673 50.13638733 -117.08503392 50.13457629 -114.89428711 50.13037109 C-111.57466044 50.1250196 -108.25516938 50.13033439 -104.93554688 50.13671875 C-102.79166637 50.13605775 -100.64778595 50.13477615 -98.50390625 50.1328125 C-97.52853409 50.13483673 -96.55316193 50.13686096 -95.54823303 50.13894653 C-89.55026731 50.11893125 -83.67318541 49.76311937 -77.70884705 49.11642456 C-74.94250268 48.9975288 -72.6881576 49.38740717 -70 50 C-63.52906394 49.86072489 -57.26790182 48.50731106 -51 47 C-46 46 -46 46 -44.05078125 45.70703125 C-34.4397111 44.01293337 -27.20454156 38.41874679 -19.8125 32.3203125 C-18 31 -18 31 -16 31 C-15.6596875 29.948125 -15.6596875 29.948125 -15.3125 28.875 C-14 26 -14 26 -11.6484375 23.29296875 C-8.80789411 19.95647378 -7.0691708 16.42702344 -5.3125 12.4375 C-5.01794922 11.79103516 -4.72339844 11.14457031 -4.41992188 10.47851562 C-2.85460328 7.02074443 -1.37791633 3.53642566 0 0 Z " fill="#B23232" transform="translate(381,331)"/>
<path d="M0 0 C0.99 0.66 1.98 1.32 3 2 C3.37752342 5.02649593 3.37752342 5.02649593 3.38095093 8.99998474 C3.3856309 9.72897179 3.39031087 10.45795884 3.39513266 11.20903641 C3.40714922 13.66484904 3.39759946 16.12011044 3.38818359 18.57592773 C3.39224667 20.33175483 3.39758706 22.08757938 3.40411377 23.84339905 C3.41783367 28.62492175 3.41246714 33.40625103 3.40297651 38.18777728 C3.39539328 43.19282229 3.4024228 48.19785047 3.40713501 53.20289612 C3.41260101 61.61893692 3.40538359 70.03489889 3.39111328 78.45092773 C3.37483282 88.16425194 3.38003828 97.87738678 3.3965925 107.59070629 C3.41024038 115.9339657 3.41210948 124.27716832 3.40427649 132.6204353 C3.39961194 137.60126629 3.39894053 142.58200858 3.40888596 147.56283379 C3.41759967 152.25535919 3.41145372 156.94764293 3.39420319 161.64014244 C3.3902597 163.35611827 3.39133542 165.07211467 3.39799118 166.78808212 C3.44006017 178.74368496 3.37558805 191.52563431 -5 201 C-12.19513643 207.07258695 -19.47780171 209.31327312 -28.875 209.30078125 C-29.60315918 209.30506638 -30.33131836 209.3093515 -31.08154297 209.31376648 C-32.61099209 209.31947323 -34.14046833 209.32003723 -35.66992188 209.31567383 C-37.9939645 209.31250822 -40.3167387 209.33603646 -42.640625 209.36132812 C-44.13541508 209.36360115 -45.63020854 209.3643046 -47.125 209.36328125 C-47.81062012 209.372491 -48.49624023 209.38170074 -49.20263672 209.39118958 C-54.21564346 209.34370512 -57.58445791 208.16870497 -62 206 C-62 205.67 -62 205.34 -62 205 C-60.73929687 204.9906543 -59.47859375 204.98130859 -58.1796875 204.97167969 C-53.47539722 204.93162628 -48.77175037 204.86582499 -44.06787109 204.79248047 C-42.03703108 204.76435965 -40.00608343 204.74310114 -37.97509766 204.72900391 C-35.04534145 204.70745102 -32.11686735 204.66073778 -29.1875 204.609375 C-27.83857666 204.60753204 -27.83857666 204.60753204 -26.46240234 204.60565186 C-19.60393675 204.44844925 -14.26725827 202.81151104 -9.01171875 198.2890625 C-2.13426273 189.64659565 -0.89522263 182.11386135 -0.84178162 171.24243164 C-0.83684364 170.50464037 -0.83190566 169.7668491 -0.82681805 169.00670052 C-0.8115757 166.5578545 -0.80311881 164.10903441 -0.79467773 161.66015625 C-0.78508875 159.89544958 -0.77507808 158.13074517 -0.76467896 156.36604309 C-0.73773432 151.59189014 -0.71666848 146.81772741 -0.69667697 142.04354095 C-0.67475272 137.04805232 -0.64739564 132.05259347 -0.62062073 127.05712891 C-0.57078068 117.60488999 -0.52580974 108.15263445 -0.48259836 98.70036316 C-0.43315158 87.93615478 -0.37826112 77.17197629 -0.32291877 66.40779686 C-0.20923215 44.27189245 -0.10236429 22.13595947 0 0 Z " fill="#B53C3C" transform="translate(179,95)"/>
<path d="M0 0 C6.59154865 7.51935067 8.71849323 17.17363368 8.31640625 27.03125 C6.8761954 40.54433945 1.66264483 52.32110305 -9 61 C-19.13205639 68.49042248 -31.37664653 72.62829975 -44 71 C-50.50956363 69.4955349 -56.35860567 67.62586855 -62 64 C-59 63 -59 63 -55.3125 64.4375 C-43.79069946 68.55512708 -30.87995947 66.33725266 -20.0625 61.4375 C-9.50696075 55.91347883 -3.26478475 48.06047455 1 37 C2.7324224 31.21537041 3.33819017 26.02177549 3.3125 20 C3.32861328 19.24460938 3.34472656 18.48921875 3.36132812 17.7109375 C3.3661046 12.15111483 2.09714964 8.13497326 0 3 C0 2.01 0 1.02 0 0 Z " fill="#BE4343" transform="translate(302,119)"/>
<path d="M0 0 C2.13423862 5.66820518 -0.84488588 11.68629674 -3 17 C-4.90235558 19.79125387 -6.95617408 21.47808704 -10 23 C-8.68074388 18.74413048 -7.04243269 14.89471333 -5 10.9375 C-3.14833416 7.34063911 -1.44294228 3.78078627 0 0 Z " fill="#B83333" transform="translate(381,331)"/>
<path d="M0 0 C2.31 0 4.62 0 7 0 C7.33 0.66 7.66 1.32 8 2 C8.598125 2.0825 9.19625 2.165 9.8125 2.25 C13.20803549 3.4141836 14.22274002 6.01674218 16 9 C9.75106054 7.25709852 5.0610453 5.09190897 0 1 C0 0.67 0 0.34 0 0 Z " fill="#B53535" transform="translate(26,370)"/>
</svg>
